C:\GBW_MyPrograms\KinderuniversiteitApp\Resultaten\Ellis_test_midnight\Reus_v1.mot
version=1
nRows=13
nColumns=31
inDegrees=yes
endheader
                time	         pelvis_tilt	           pelvis_tx	           pelvis_ty	       hip_flexion_r	        knee_angle_r	       ankle_angle_r	       hip_flexion_l	        knee_angle_l	       ankle_angle_l	    lumbar_extension	          arm_flex_r	          arm_flex_l	hamstrings_r/activation	bifemsh_r/activation	glut_max_r/activation	iliopsoas_r/activation	rect_fem_r/activation	  vasti_r/activation	gastroc_r/activation	 soleus_r/activation	tib_ant_r/activation	hamstrings_l/activation	bifemsh_l/activation	glut_max_l/activation	iliopsoas_l/activation	rect_fem_l/activation	  vasti_l/activation	gastroc_l/activation	 soleus_l/activation	tib_ant_l/activation	
          3.00000000	         -0.98361774	          8.04188603	          5.57502325	        -17.05521010	         -1.81700331	          5.15549225	         24.82870904	        -22.21518411	         -6.84602050	         -3.68660467	         -3.70418944	         -3.70419845	          0.28565992	          0.72729875	          0.29092384	          0.95561391	          0.42442126	          0.36108489	          0.99128096	          0.99095145	          0.20150751	          0.34912488	          0.53711636	          0.51172280	          0.59208498	          0.54958147	          0.22229308	          0.47425333	          0.20361077	          0.75077142	
          3.02000000	         -0.97709248	          8.09966812	          5.56545329	        -16.99250781	         -3.12615666	          5.52367067	         25.12024943	        -23.62031577	         -6.10114795	         -3.62371337	         -3.80331682	         -3.80332552	          0.29021736	          0.72922644	          0.25352283	          0.96948293	          0.47229316	          0.33933926	          0.99019925	          0.99048514	          0.18843559	          0.27701624	          0.49925936	          0.55269976	          0.60426424	          0.66718933	          0.49286725	          0.51502268	          0.28321852	          0.62458783	
          3.04000000	         -0.90466963	          8.15878278	          5.55735377	        -17.04781754	         -4.34004119	          5.65803170	         25.23862377	        -25.26169261	         -4.16409089	         -3.61173790	         -3.92216755	         -3.92217467	          0.31114016	          0.72514574	          0.27020707	          0.97248433	          0.46841490	          0.32309478	          0.99043086	          0.99264137	          0.16803359	          0.22651481	          0.48840888	          0.59669805	          0.57836662	          0.73089447	          0.74097806	          0.55542965	          0.39736655	          0.50032837	
          3.06000000	         -0.86766089	          8.21897324	          5.55051924	        -17.05574110	         -5.55154248	          5.56500315	         25.17123207	        -26.57119964	         -2.46292673	         -3.53690852	         -4.07585200	         -4.07585782	          0.33065648	          0.71808473	          0.30623325	          0.96775315	          0.46269273	          0.30757191	          0.98321237	          0.99268931	          0.14555514	          0.21289090	          0.48600241	          0.62373768	          0.52977009	          0.70498471	          0.77414392	          0.56531376	          0.49499954	          0.46126818	
          3.08000000	         -0.88177497	          8.27991177	          5.54521851	        -16.95779098	         -6.82210519	          5.23340817	         24.92910723	        -27.48786676	         -0.88674986	         -3.38734369	         -4.25920447	         -4.25920953	          0.34460303	          0.71285749	          0.31647641	          0.96259199	          0.46743362	          0.28505191	          0.95556866	          0.99373824	          0.12401063	          0.21516951	          0.48300867	          0.62725376	          0.49598395	          0.69735449	          0.82013707	          0.56477591	          0.59166072	          0.44883513	
          3.10000000	         -0.93495161	          8.34130441	          5.54177416	        -16.73331644	         -8.19805815	          4.64601047	         24.52305869	        -28.05040170	          0.59633503	         -3.18293588	         -4.46199277	         -4.46199568	          0.35310773	          0.70849088	          0.31699355	          0.95326496	          0.47607344	          0.25573639	          0.91424139	          0.99284888	          0.09800617	          0.22431539	          0.47508705	          0.62263662	          0.46603232	          0.69891373	          0.86896984	          0.55407819	          0.65759930	          0.45316816	
          3.12000000	         -1.01593874	          8.40293519	          5.54039163	        -16.36556301	         -9.71722886	          3.78026964	         23.95903196	        -28.28274509	          1.98500978	         -2.94094387	         -4.67617956	         -4.67618220	          0.35696381	          0.70561075	          0.30333818	          0.93643788	          0.48774297	          0.21092037	          0.86553803	          0.98241796	          0.07793553	          0.23722194	          0.46210706	          0.61586320	          0.43462940	          0.70857832	          0.88553822	          0.53053122	          0.62404668	          0.46756945	
          3.14000000	         -1.11193318	          8.46458222	          5.54119105	        -15.84009197	        -11.41482327	          2.60976772	         23.25590437	        -28.23563193	          3.26193254	         -2.68055389	         -4.89326953	         -4.89326969	          0.35716968	          0.69880315	          0.31606276	          0.91003099	          0.48271188	          0.16067403	          0.81757846	          0.91536270	          0.06322762	          0.25281926	          0.44044782	          0.65067849	          0.33974598	          0.68945066	          0.86333459	          0.49530844	          0.58086148	          0.48621557	
          3.16000000	         -1.22035850	          8.52534039	          5.54458284	        -15.10695910	        -13.34933110	          1.08204306	         22.58416911	        -28.16605540	          4.21891485	         -2.42302333	         -5.08961486	         -5.08961476	          0.34052066	          0.69377049	          0.28507525	          0.89048604	          0.50834484	          0.12324565	          0.77437203	          0.82393419	          0.05629502	          0.24738069	          0.41987437	          0.65313339	          0.32549958	          0.71972116	          0.84902130	          0.47882756	          0.62040020	          0.49650263	
          3.18000000	         -1.35434420	          8.58476871	          5.55034856	        -14.11905970	        -15.55133707	         -0.85795235	         22.02597067	        -28.16591761	          4.83437521	         -2.16159592	         -5.25688006	         -5.25687761	          0.32987244	          0.69348130	          0.24107228	          0.84400533	          0.54801186	          0.09435224	          0.73715552	          0.71435749	          0.05721010	          0.26081785	          0.40600026	          0.66556217	          0.33061033	          0.74364208	          0.86631812	          0.47282959	          0.66024529	          0.51014809	
          3.20000000	         -1.48123805	          8.64340705	          5.55785143	        -12.92935516	        -17.98042146	         -3.26370055	         21.41170616	        -28.03692822	          5.28695013	         -1.92334092	         -5.40181372	         -5.40181079	          0.31892919	          0.68006091	          0.23484643	          0.78503447	          0.55323704	          0.07442044	          0.70830200	          0.59189408	          0.05546149	          0.27955035	          0.39393769	          0.70825633	          0.26289477	          0.70186343	          0.86687196	          0.46523580	          0.66799125	          0.52159089	
          3.22000000	         -1.52213866	          8.70152760	          5.56705816	        -11.65180278	        -20.55916129	         -6.22864109	         20.58494791	        -27.67826039	          5.68796954	         -1.79548751	         -5.51426549	         -5.51426040	          0.30105481	          0.66286627	          0.24694675	          0.73524225	          0.58774121	          0.05922920	          0.68383282	          0.46590768	          0.05511428	          0.29473374	          0.38422739	          0.71838944	          0.20314887	          0.68034274	          0.83293172	          0.46078652	          0.67415016	          0.52776774	
          3.24000000	         -1.42961523	          8.75914221	          5.57777162	        -10.37054561	        -23.19383660	         -9.85202739	         19.48545223	        -27.08171142	          6.08539878	         -1.83371058	         -5.58435859	         -5.58435296	          0.26996982	          0.64846961	          0.23654298	          0.70918124	          0.67749600	          0.06479002	          0.65307093	          0.35343063	          0.05459140	          0.29612506	          0.38409651	          0.66600148	          0.19672487	          0.69991774	          0.76810603	          0.45923551	          0.68102612	          0.52934984	
